<svg xmlns="http://www.w3.org/2000/svg" xmlns:xlink="http://www.w3.org/1999/xlink" width="500" zoomAndPan="magnify" viewBox="0 0 375 374.999991" height="500" preserveAspectRatio="xMidYMid meet" version="1.0"><defs><g/><clipPath id="id1"><path d="M 112.5 66.953125 L 170 66.953125 L 170 125 L 112.5 125 Z M 112.5 66.953125 " clip-rule="nonzero"/></clipPath><clipPath id="id2"><path d="M 205 66.953125 L 262.5 66.953125 L 262.5 125 L 205 125 Z M 205 66.953125 " clip-rule="nonzero"/></clipPath><clipPath id="id3"><path d="M 138 92 L 234 92 L 234 187.703125 L 138 187.703125 Z M 138 92 " clip-rule="nonzero"/></clipPath><clipPath id="id4"><path d="M 172 165 L 195 165 L 195 187.703125 L 172 187.703125 Z M 172 165 " clip-rule="nonzero"/></clipPath></defs><g clip-path="url(#id1)"><path fill="#2f3f50" d="M 157.121094 66.964844 L 112.5 111.667969 L 124.960938 124.15625 L 169.585938 79.453125 L 157.121094 66.964844 " fill-opacity="1" fill-rule="nonzero"/></g><g clip-path="url(#id2)"><path fill="#2f3f50" d="M 217.875 66.964844 L 262.5 111.667969 L 250.03125 124.15625 L 205.40625 79.453125 L 217.875 66.964844 " fill-opacity="1" fill-rule="nonzero"/></g><path fill="#62e1e9" d="M 231.246094 143.339844 L 225.042969 137.117188 L 190.21875 102.234375 C 189.390625 101.402344 187.769531 100.609375 186.609375 100.460938 L 182.808594 99.980469 C 181.640625 99.835938 180.027344 99.042969 179.191406 98.210938 L 173.929688 92.929688 L 139.523438 127.394531 L 144.789062 132.671875 C 145.617188 133.507812 146.417969 135.128906 146.558594 136.296875 L 147.039062 140.097656 C 147.1875 141.261719 147.976562 142.882812 148.804688 143.714844 L 183.632812 178.601562 L 189.84375 184.820312 C 192.695312 187.683594 197.335938 187.6875 200.195312 184.820312 C 203.054688 181.960938 203.050781 177.316406 200.195312 174.453125 L 193.984375 168.226562 L 194.042969 168.164062 L 200.230469 174.359375 C 203.054688 177.1875 207.632812 177.1875 210.460938 174.359375 C 213.277344 171.53125 213.277344 166.949219 210.460938 164.121094 L 204.273438 157.925781 L 204.402344 157.792969 L 210.585938 163.988281 C 213.40625 166.816406 217.984375 166.816406 220.804688 163.988281 C 223.636719 161.160156 223.628906 156.574219 220.804688 153.75 L 214.625 147.554688 L 214.6875 147.488281 L 220.898438 153.710938 C 223.757812 156.574219 228.394531 156.574219 231.246094 153.710938 C 234.109375 150.847656 234.109375 146.203125 231.246094 143.339844 " fill-opacity="1" fill-rule="nonzero"/><g clip-path="url(#id3)"><path fill="#0f1120" d="M 140.273438 127.394531 L 145.167969 132.300781 C 146.078125 133.21875 146.929688 134.945312 147.09375 136.230469 L 147.566406 140.027344 C 147.695312 141.074219 148.441406 142.59375 149.183594 143.339844 L 190.21875 184.445312 C 191.503906 185.730469 193.210938 186.4375 195.019531 186.4375 C 196.832031 186.4375 198.539062 185.730469 199.820312 184.445312 C 202.464844 181.792969 202.464844 177.480469 199.820312 174.828125 L 193.234375 168.230469 L 193.980469 167.472656 L 194.421875 167.789062 L 200.605469 173.984375 C 201.875 175.25 203.550781 175.945312 205.339844 175.945312 C 207.132812 175.945312 208.820312 175.25 210.082031 173.984375 C 212.691406 171.367188 212.691406 167.109375 210.082031 164.496094 L 203.519531 157.925781 L 204.402344 157.039062 L 210.960938 163.613281 C 212.226562 164.878906 213.910156 165.578125 215.699219 165.578125 C 217.484375 165.578125 219.171875 164.878906 220.4375 163.613281 C 221.703125 162.34375 222.394531 160.660156 222.394531 158.871094 C 222.394531 157.074219 221.703125 155.390625 220.4375 154.125 L 213.871094 147.554688 L 214.625 146.800781 L 215.0625 147.113281 L 221.273438 153.332031 C 222.558594 154.617188 224.261719 155.324219 226.078125 155.324219 C 227.894531 155.324219 229.59375 154.617188 230.875 153.332031 C 233.523438 150.683594 233.523438 146.367188 230.875 143.714844 L 189.84375 102.609375 C 189.097656 101.863281 187.589844 101.121094 186.535156 100.988281 L 182.746094 100.511719 C 181.460938 100.347656 179.738281 99.503906 178.820312 98.585938 L 173.929688 93.683594 Z M 195.019531 187.503906 C 192.921875 187.503906 190.949219 186.683594 189.464844 185.199219 L 148.4375 144.09375 C 147.515625 143.175781 146.667969 141.449219 146.511719 140.160156 L 146.039062 136.363281 C 145.898438 135.316406 145.164062 133.800781 144.410156 133.050781 L 138.765625 127.394531 L 173.929688 92.175781 L 179.570312 97.832031 C 180.320312 98.578125 181.835938 99.320312 182.875 99.453125 L 186.671875 99.933594 C 187.957031 100.09375 189.675781 100.941406 190.597656 101.855469 L 231.628906 142.960938 C 234.691406 146.03125 234.691406 151.019531 231.628906 154.085938 C 230.144531 155.570312 228.171875 156.390625 226.078125 156.390625 C 224.914062 156.390625 223.792969 156.140625 222.773438 155.664062 C 223.214844 156.660156 223.460938 157.746094 223.460938 158.871094 C 223.460938 160.945312 222.652344 162.898438 221.183594 164.367188 C 219.71875 165.832031 217.769531 166.644531 215.699219 166.644531 C 214.515625 166.644531 213.382812 166.378906 212.34375 165.882812 C 213.71875 168.773438 213.21875 172.34375 210.835938 174.734375 C 209.367188 176.207031 207.414062 177.011719 205.339844 177.011719 C 204.21875 177.011719 203.136719 176.777344 202.144531 176.324219 C 203.484375 179.234375 202.964844 182.804688 200.570312 185.199219 C 199.085938 186.683594 197.113281 187.503906 195.019531 187.503906 " fill-opacity="1" fill-rule="nonzero"/></g><path fill="#0652e9" d="M 195.796875 98.207031 C 194.96875 99.042969 193.351562 99.835938 192.183594 99.980469 L 188.390625 100.460938 C 188.113281 100.496094 187.8125 100.570312 187.5 100.667969 C 187.519531 100.679688 166.023438 122.21875 166.023438 122.21875 C 162.84375 125.398438 162.839844 130.558594 166.023438 133.738281 C 169.195312 136.921875 174.347656 136.921875 177.519531 133.738281 L 196.066406 115.625 C 198.167969 113.570312 201.558594 113.589844 203.632812 115.671875 L 225.042969 137.117188 L 227.960938 140.042969 L 228.4375 136.296875 C 228.582031 135.128906 229.378906 133.507812 230.203125 132.671875 L 235.476562 127.394531 L 201.070312 92.929688 L 195.796875 98.207031 " fill-opacity="1" fill-rule="nonzero"/><path fill="#0f1120" d="M 199.828125 113.5625 C 201.40625 113.5625 202.898438 114.179688 204.003906 115.296875 L 227.570312 138.898438 L 227.90625 136.230469 C 228.066406 134.945312 228.914062 133.21875 229.832031 132.300781 L 234.722656 127.394531 L 201.070312 93.683594 L 196.171875 98.585938 C 195.261719 99.503906 193.53125 100.351562 192.253906 100.511719 L 188.460938 100.992188 C 188.222656 101.019531 187.953125 101.082031 187.65625 101.175781 L 187.648438 101.148438 C 186.554688 102.398438 182.320312 106.640625 166.398438 122.597656 C 163.429688 125.5625 163.429688 130.394531 166.398438 133.363281 C 167.835938 134.800781 169.738281 135.59375 171.765625 135.59375 C 173.796875 135.59375 175.710938 134.800781 177.148438 133.363281 L 195.695312 115.242188 C 196.804688 114.160156 198.265625 113.5625 199.828125 113.5625 Z M 228.355469 141.1875 L 203.253906 116.046875 C 202.34375 115.132812 201.121094 114.628906 199.828125 114.628906 C 198.546875 114.628906 197.34375 115.117188 196.433594 116.003906 L 177.894531 134.121094 C 176.261719 135.753906 174.082031 136.65625 171.769531 136.65625 C 171.765625 136.65625 171.765625 136.65625 171.765625 136.65625 C 169.457031 136.65625 167.28125 135.753906 165.644531 134.117188 C 162.265625 130.734375 162.265625 125.226562 165.644531 121.84375 C 172.5 114.972656 185.191406 102.253906 186.914062 100.507812 L 186.863281 100.3125 L 187.335938 100.164062 C 187.699219 100.046875 188.027344 99.972656 188.320312 99.933594 L 192.117188 99.453125 C 193.160156 99.320312 194.675781 98.578125 195.429688 97.832031 L 201.070312 92.175781 L 236.226562 127.394531 L 230.582031 133.050781 C 229.835938 133.800781 229.09375 135.316406 228.960938 136.363281 L 228.355469 141.1875 " fill-opacity="1" fill-rule="nonzero"/><path fill="#0652e9" d="M 174.804688 174.453125 C 171.945312 177.316406 171.941406 181.960938 174.804688 184.820312 C 177.660156 187.6875 182.292969 187.683594 185.152344 184.820312 L 191.507812 178.457031 C 194.367188 175.59375 194.367188 170.953125 191.507812 168.085938 C 188.652344 165.21875 184.015625 165.21875 181.152344 168.085938 L 174.804688 174.453125 " fill-opacity="1" fill-rule="nonzero"/><g clip-path="url(#id4)"><path fill="#0f1120" d="M 186.332031 166.472656 C 184.519531 166.472656 182.8125 167.179688 181.53125 168.460938 L 175.179688 174.828125 C 172.53125 177.480469 172.527344 181.792969 175.179688 184.445312 C 176.457031 185.730469 178.160156 186.4375 179.976562 186.4375 C 181.789062 186.4375 183.492188 185.730469 184.777344 184.445312 L 191.132812 178.078125 C 193.78125 175.429688 193.78125 171.113281 191.132812 168.460938 C 189.847656 167.179688 188.140625 166.472656 186.332031 166.472656 Z M 179.976562 187.503906 C 177.878906 187.503906 175.90625 186.683594 174.429688 185.199219 C 171.363281 182.132812 171.363281 177.140625 174.429688 174.074219 L 180.78125 167.710938 C 182.261719 166.226562 184.230469 165.40625 186.332031 165.40625 C 188.429688 165.40625 190.402344 166.226562 191.886719 167.710938 C 194.945312 170.777344 194.945312 175.769531 191.886719 178.832031 L 185.527344 185.199219 C 184.046875 186.683594 182.078125 187.503906 179.976562 187.503906 " fill-opacity="1" fill-rule="nonzero"/></g><path fill="#0652e9" d="M 164.449219 164.078125 C 161.585938 166.945312 161.585938 171.585938 164.449219 174.453125 C 167.308594 177.316406 171.945312 177.316406 174.804688 174.453125 L 181.152344 168.085938 C 184.015625 165.21875 184.015625 160.578125 181.152344 157.714844 C 178.296875 154.851562 173.664062 154.851562 170.800781 157.714844 L 164.449219 164.078125 " fill-opacity="1" fill-rule="nonzero"/><path fill="#0f1120" d="M 175.972656 156.101562 C 174.164062 156.101562 172.457031 156.808594 171.175781 158.09375 L 164.824219 164.457031 C 162.179688 167.109375 162.179688 171.421875 164.824219 174.074219 C 166.109375 175.355469 167.8125 176.066406 169.621094 176.066406 C 169.621094 176.066406 169.621094 176.066406 169.625 176.066406 C 171.4375 176.066406 173.144531 175.355469 174.429688 174.074219 L 180.78125 167.710938 C 182.058594 166.425781 182.769531 164.71875 182.769531 162.902344 C 182.769531 161.085938 182.058594 159.378906 180.78125 158.09375 C 179.496094 156.808594 177.792969 156.101562 175.972656 156.101562 Z M 169.625 177.132812 C 169.621094 177.132812 169.621094 177.132812 169.621094 177.132812 C 167.527344 177.132812 165.554688 176.3125 164.074219 174.828125 C 161.007812 171.761719 161.007812 166.769531 164.074219 163.703125 L 170.425781 157.339844 C 171.910156 155.855469 173.878906 155.039062 175.972656 155.039062 C 178.070312 155.039062 180.050781 155.855469 181.53125 157.339844 C 183.011719 158.824219 183.832031 160.800781 183.832031 162.902344 C 183.832031 165.003906 183.011719 166.976562 181.53125 168.460938 L 175.179688 174.828125 C 173.695312 176.3125 171.71875 177.132812 169.625 177.132812 " fill-opacity="1" fill-rule="nonzero"/><path fill="#0652e9" d="M 154.097656 153.710938 C 151.238281 156.574219 151.238281 161.214844 154.097656 164.082031 C 156.953125 166.945312 161.585938 166.945312 164.449219 164.078125 L 170.800781 157.714844 C 173.664062 154.851562 173.664062 150.210938 170.800781 147.34375 C 167.941406 144.484375 163.308594 144.484375 160.445312 147.34375 L 154.097656 153.710938 " fill-opacity="1" fill-rule="nonzero"/><path fill="#0f1120" d="M 165.625 145.730469 C 163.808594 145.730469 162.109375 146.4375 160.820312 147.722656 L 154.46875 154.085938 C 153.195312 155.371094 152.484375 157.078125 152.484375 158.894531 C 152.484375 160.710938 153.191406 162.417969 154.46875 163.707031 C 155.753906 164.988281 157.457031 165.695312 159.269531 165.695312 C 161.082031 165.695312 162.789062 164.988281 164.074219 163.703125 L 170.425781 157.339844 C 173.070312 154.6875 173.070312 150.375 170.425781 147.722656 C 169.136719 146.4375 167.4375 145.730469 165.625 145.730469 Z M 159.269531 166.761719 C 159.269531 166.761719 159.269531 166.761719 159.265625 166.761719 C 157.179688 166.761719 155.199219 165.945312 153.71875 164.457031 C 152.234375 162.972656 151.417969 160.996094 151.417969 158.894531 C 151.417969 156.792969 152.234375 154.820312 153.71875 153.332031 L 160.074219 146.96875 C 161.554688 145.484375 163.527344 144.664062 165.625 144.664062 C 167.722656 144.664062 169.691406 145.484375 171.175781 146.96875 C 174.238281 150.035156 174.238281 155.023438 171.175781 158.09375 L 164.824219 164.457031 C 163.335938 165.945312 161.367188 166.761719 159.269531 166.761719 " fill-opacity="1" fill-rule="nonzero"/><path fill="#0652e9" d="M 143.742188 143.339844 C 140.886719 146.203125 140.886719 150.847656 143.742188 153.710938 C 146.601562 156.574219 151.238281 156.574219 154.097656 153.710938 L 160.445312 147.34375 C 163.308594 144.484375 163.308594 139.839844 160.445312 136.976562 C 157.589844 134.109375 152.957031 134.109375 150.097656 136.976562 L 143.742188 143.339844 " fill-opacity="1" fill-rule="nonzero"/><path fill="#0f1120" d="M 155.273438 135.359375 C 153.457031 135.359375 151.757812 136.066406 150.476562 137.351562 L 144.117188 143.714844 C 141.472656 146.367188 141.472656 150.683594 144.117188 153.332031 C 145.402344 154.617188 147.105469 155.324219 148.921875 155.324219 C 150.730469 155.324219 152.4375 154.617188 153.71875 153.332031 L 160.074219 146.96875 C 162.71875 144.316406 162.71875 140.003906 160.074219 137.351562 C 158.789062 136.066406 157.089844 135.359375 155.273438 135.359375 Z M 148.921875 156.390625 C 146.820312 156.390625 144.851562 155.574219 143.363281 154.085938 C 140.304688 151.019531 140.304688 146.03125 143.363281 142.960938 L 149.722656 136.597656 C 151.203125 135.113281 153.175781 134.292969 155.273438 134.292969 C 157.367188 134.292969 159.34375 135.113281 160.820312 136.597656 C 163.886719 139.664062 163.886719 144.65625 160.820312 147.722656 L 154.46875 154.085938 C 152.988281 155.574219 151.011719 156.390625 148.921875 156.390625 " fill-opacity="1" fill-rule="nonzero"/><path fill="#f2f2f0" d="M 199.273438 91.132812 L 237.46875 129.398438 L 247.496094 119.355469 L 209.292969 81.089844 L 199.273438 91.132812 " fill-opacity="1" fill-rule="nonzero"/><path fill="#2f3f50" d="M 200.777344 91.132812 L 237.46875 127.890625 L 245.988281 119.359375 L 209.292969 82.597656 Z M 237.46875 130.902344 L 197.769531 91.132812 L 209.292969 79.585938 L 248.996094 119.359375 L 237.46875 130.902344 " fill-opacity="1" fill-rule="nonzero"/><path fill="#f2f2f0" d="M 175.722656 91.128906 L 137.523438 129.398438 L 127.5 119.355469 L 165.703125 81.089844 L 175.722656 91.128906 " fill-opacity="1" fill-rule="nonzero"/><path fill="#2f3f50" d="M 129.003906 119.355469 L 137.523438 127.890625 L 174.214844 91.128906 L 165.703125 82.597656 Z M 137.523438 130.902344 L 126 119.355469 L 165.703125 79.585938 L 177.226562 91.128906 L 137.523438 130.902344 " fill-opacity="1" fill-rule="nonzero"/><path fill="#2f3f50" d="M 234.738281 116.617188 C 233.769531 117.589844 233.769531 119.167969 234.738281 120.140625 C 235.707031 121.113281 237.277344 121.113281 238.257812 120.140625 C 239.226562 119.167969 239.226562 117.589844 238.257812 116.617188 C 237.277344 115.644531 235.707031 115.644531 234.738281 116.617188 " fill-opacity="1" fill-rule="nonzero"/><path fill="#2f3f50" d="M 140.253906 116.617188 C 141.226562 117.589844 141.226562 119.167969 140.253906 120.140625 C 139.285156 121.113281 137.710938 121.113281 136.742188 120.140625 C 135.769531 119.167969 135.769531 117.589844 136.742188 116.617188 C 137.710938 115.648438 139.285156 115.648438 140.253906 116.617188 " fill-opacity="1" fill-rule="nonzero"/><g fill="#0652e9" fill-opacity="1"><g transform="translate(117.339405, 237.534858)"><g><path d="M 14.875 -16.9375 L 14.875 -21 L 2.238281 -21 L 2.238281 0 L 6.859375 0 L 6.859375 -8.46875 L 13.71875 -8.46875 L 13.71875 -12.527344 L 6.859375 -12.527344 L 6.859375 -16.9375 Z M 14.875 -16.9375 "/></g></g></g><g fill="#0652e9" fill-opacity="1"><g transform="translate(133.794301, 237.534858)"><g><path d="M 13.019531 -8.644531 C 15.503906 -9.378906 17.253906 -11.6875 17.253906 -14.558594 C 17.253906 -18.128906 14.59375 -21 10.988281 -21 L 2.066406 -21 L 2.066406 0 L 6.683594 0 L 6.683594 -8.121094 L 8.539062 -8.121094 L 13.71875 0 L 18.898438 0 Z M 10.289062 -11.933594 L 6.683594 -11.933594 L 6.683594 -16.902344 L 10.289062 -16.902344 C 11.757812 -16.902344 12.84375 -15.855469 12.84375 -14.417969 C 12.84375 -12.949219 11.757812 -11.933594 10.289062 -11.933594 Z M 10.289062 -11.933594 "/></g></g></g><g fill="#0652e9" fill-opacity="1"><g transform="translate(153.748709, 237.534858)"><g><path d="M 12.074219 0.28125 C 18.058594 0.28125 22.851562 -4.550781 22.851562 -10.5 C 22.851562 -16.449219 18.058594 -21.277344 12.074219 -21.277344 C 6.125 -21.277344 1.292969 -16.449219 1.292969 -10.5 C 1.292969 -4.550781 6.125 0.28125 12.074219 0.28125 Z M 12.074219 -4.234375 C 8.539062 -4.234375 5.84375 -6.964844 5.84375 -10.5 C 5.84375 -14.035156 8.539062 -16.761719 12.074219 -16.761719 C 15.644531 -16.761719 18.339844 -14.035156 18.339844 -10.5 C 18.339844 -6.964844 15.644531 -4.234375 12.074219 -4.234375 Z M 12.074219 -4.234375 "/></g></g></g><g fill="#0652e9" fill-opacity="1"><g transform="translate(179.162359, 237.534858)"><g><path d="M 20.367188 -21 L 13.683594 -6.472656 L 7.070312 -21 L 2.066406 -21 L 2.066406 0 L 6.683594 0 L 6.683594 -12.527344 L 12.355469 0 L 15.011719 0 L 20.71875 -12.492188 L 20.71875 0 L 25.335938 0 L 25.335938 -21 Z M 20.367188 -21 "/></g></g></g><g fill="#ffffff" fill-opacity="1"><g transform="translate(207.784715, 237.534858)"><g/></g></g><g fill="#62e1e9" fill-opacity="1"><g transform="translate(217.405805, 237.534858)"><g><path d="M 15.011719 -21 L -0.175781 -21 L -0.175781 -16.902344 L 5.144531 -16.902344 L 5.144531 0 L 9.730469 0 L 9.730469 -16.902344 L 15.011719 -16.902344 Z M 15.011719 -21 "/></g></g></g><g fill="#62e1e9" fill-opacity="1"><g transform="translate(233.475756, 237.534858)"><g><path d="M 12.074219 0.28125 C 18.058594 0.28125 22.851562 -4.550781 22.851562 -10.5 C 22.851562 -16.449219 18.058594 -21.277344 12.074219 -21.277344 C 6.125 -21.277344 1.292969 -16.449219 1.292969 -10.5 C 1.292969 -4.550781 6.125 0.28125 12.074219 0.28125 Z M 12.074219 -4.234375 C 8.539062 -4.234375 5.84375 -6.964844 5.84375 -10.5 C 5.84375 -14.035156 8.539062 -16.761719 12.074219 -16.761719 C 15.644531 -16.761719 18.339844 -14.035156 18.339844 -10.5 C 18.339844 -6.964844 15.644531 -4.234375 12.074219 -4.234375 Z M 12.074219 -4.234375 "/></g></g></g><g fill="#ffffff" fill-opacity="1"><g transform="translate(95.400445, 263.17888)"><g><path d="M 1.09375 0 L 3.554688 0 C 6.03125 0 8.054688 -2.011719 8.054688 -4.5 C 8.054688 -6.988281 6.03125 -9 3.554688 -9 L 1.09375 -9 Z M 2.039062 -0.960938 L 2.039062 -8.039062 L 3.539062 -8.039062 C 5.535156 -8.039062 7.09375 -6.523438 7.09375 -4.5 C 7.09375 -2.476562 5.535156 -0.960938 3.539062 -0.960938 Z M 2.039062 -0.960938 "/></g></g></g><g fill="#ffffff" fill-opacity="1"><g transform="translate(108.210509, 263.17888)"><g><path d="M 1.171875 0 L 2.128906 0 L 2.128906 -9 L 1.171875 -9 Z M 1.171875 0 "/></g></g></g><g fill="#ffffff" fill-opacity="1"><g transform="translate(115.515575, 263.17888)"><g><path d="M 5.386719 -4.769531 L 5.386719 -3.871094 L 9 -3.871094 C 8.714844 -2.128906 7.214844 -0.839844 5.398438 -0.839844 C 3.375 -0.839844 1.738281 -2.460938 1.738281 -4.5 C 1.738281 -6.539062 3.375 -8.160156 5.398438 -8.160156 C 6.765625 -8.160156 7.964844 -7.425781 8.578125 -6.316406 L 9.40625 -6.78125 C 8.625 -8.175781 7.125 -9.121094 5.398438 -9.121094 C 2.835938 -9.121094 0.78125 -7.050781 0.78125 -4.5 C 0.78125 -1.949219 2.835938 0.121094 5.398438 0.121094 C 7.949219 0.121094 10.019531 -1.949219 10.019531 -4.5 L 10.019531 -4.769531 Z M 5.386719 -4.769531 "/></g></g></g><g fill="#ffffff" fill-opacity="1"><g transform="translate(130.320641, 263.17888)"><g><path d="M 1.171875 0 L 2.128906 0 L 2.128906 -9 L 1.171875 -9 Z M 1.171875 0 "/></g></g></g><g fill="#ffffff" fill-opacity="1"><g transform="translate(137.625708, 263.17888)"><g><path d="M 6.074219 -9 L 0.136719 -9 L 0.136719 -8.039062 L 2.625 -8.039062 L 2.625 0 L 3.585938 0 L 3.585938 -8.039062 L 6.074219 -8.039062 Z M 6.074219 -9 "/></g></g></g><g fill="#ffffff" fill-opacity="1"><g transform="translate(147.855781, 263.17888)"><g><path d="M 6.523438 0 L 7.574219 0 L 4.320312 -9 L 3.253906 -9 L 0 0 L 1.050781 0 L 1.785156 -2.101562 L 5.789062 -2.101562 Z M 2.101562 -3.015625 L 3.796875 -7.859375 L 5.476562 -3.015625 Z M 2.101562 -3.015625 "/></g></g></g><g fill="#ffffff" fill-opacity="1"><g transform="translate(159.450848, 263.17888)"><g><path d="M 2.054688 -0.960938 L 2.054688 -9 L 1.09375 -9 L 1.09375 0 L 5.398438 0 L 5.398438 -0.960938 Z M 2.054688 -0.960938 "/></g></g></g><g fill="#ffffff" fill-opacity="1"><g transform="translate(169.005915, 263.17888)"><g/></g></g><g fill="#ffffff" fill-opacity="1"><g transform="translate(176.640983, 263.17888)"><g><path d="M 9.03125 -9 L 5.566406 -1.15625 L 2.113281 -9 L 1.09375 -9 L 1.09375 0 L 2.054688 0 L 2.054688 -7.109375 L 5.160156 0 L 5.953125 0 L 9.089844 -7.078125 L 9.089844 0 L 10.035156 0 L 10.035156 -9 Z M 9.03125 -9 "/></g></g></g><g fill="#ffffff" fill-opacity="1"><g transform="translate(191.791049, 263.17888)"><g><path d="M 6.523438 0 L 7.574219 0 L 4.320312 -9 L 3.253906 -9 L 0 0 L 1.050781 0 L 1.785156 -2.101562 L 5.789062 -2.101562 Z M 2.101562 -3.015625 L 3.796875 -7.859375 L 5.476562 -3.015625 Z M 2.101562 -3.015625 "/></g></g></g><g fill="#ffffff" fill-opacity="1"><g transform="translate(203.38611, 263.17888)"><g><path d="M 4.738281 -4.109375 C 5.925781 -4.273438 6.824219 -5.265625 6.824219 -6.480469 C 6.824219 -7.890625 5.699219 -9 4.320312 -9 L 1.09375 -9 L 1.09375 0 L 2.054688 0 L 2.054688 -4.066406 L 3.75 -4.066406 L 6.300781 0 L 7.394531 0 Z M 2.054688 -4.980469 L 2.054688 -8.039062 L 4.261719 -8.039062 C 5.160156 -8.039062 5.863281 -7.410156 5.863281 -6.511719 C 5.863281 -5.59375 5.175781 -4.980469 4.261719 -4.980469 Z M 2.054688 -4.980469 "/></g></g></g><g fill="#ffffff" fill-opacity="1"><g transform="translate(214.936174, 263.17888)"><g><path d="M 6.464844 0 L 7.800781 0 L 3.523438 -4.84375 L 7.636719 -9 L 6.300781 -9 L 2.683594 -5.308594 L 2.054688 -5.308594 L 2.054688 -9 L 1.09375 -9 L 1.09375 0 L 2.054688 0 L 2.054688 -4.410156 L 2.699219 -4.410156 Z M 6.464844 0 "/></g></g></g><g fill="#ffffff" fill-opacity="1"><g transform="translate(226.651238, 263.17888)"><g><path d="M 6.089844 -8.070312 L 6.089844 -9 L 1.171875 -9 L 1.171875 0 L 6.089844 0 L 6.089844 -0.929688 L 2.128906 -0.929688 L 2.128906 -4.035156 L 5.578125 -4.035156 L 5.578125 -4.964844 L 2.128906 -4.964844 L 2.128906 -8.070312 Z M 6.089844 -8.070312 "/></g></g></g><g fill="#ffffff" fill-opacity="1"><g transform="translate(237.6613, 263.17888)"><g><path d="M 6.074219 -9 L 0.136719 -9 L 0.136719 -8.039062 L 2.625 -8.039062 L 2.625 0 L 3.585938 0 L 3.585938 -8.039062 L 6.074219 -8.039062 Z M 6.074219 -9 "/></g></g></g><g fill="#ffffff" fill-opacity="1"><g transform="translate(247.891379, 263.17888)"><g><path d="M 1.171875 0 L 2.128906 0 L 2.128906 -9 L 1.171875 -9 Z M 1.171875 0 "/></g></g></g><g fill="#ffffff" fill-opacity="1"><g transform="translate(255.19644, 263.17888)"><g><path d="M 7.558594 -9 L 7.558594 -1.605469 L 1.996094 -9 L 1.09375 -9 L 1.09375 0 L 2.054688 0 L 2.054688 -7.394531 L 7.605469 0 L 8.503906 0 L 8.503906 -9 Z M 7.558594 -9 "/></g></g></g><g fill="#ffffff" fill-opacity="1"><g transform="translate(268.816511, 263.17888)"><g><path d="M 5.386719 -4.769531 L 5.386719 -3.871094 L 9 -3.871094 C 8.714844 -2.128906 7.214844 -0.839844 5.398438 -0.839844 C 3.375 -0.839844 1.738281 -2.460938 1.738281 -4.5 C 1.738281 -6.539062 3.375 -8.160156 5.398438 -8.160156 C 6.765625 -8.160156 7.964844 -7.425781 8.578125 -6.316406 L 9.40625 -6.78125 C 8.625 -8.175781 7.125 -9.121094 5.398438 -9.121094 C 2.835938 -9.121094 0.78125 -7.050781 0.78125 -4.5 C 0.78125 -1.949219 2.835938 0.121094 5.398438 0.121094 C 7.949219 0.121094 10.019531 -1.949219 10.019531 -4.5 L 10.019531 -4.769531 Z M 5.386719 -4.769531 "/></g></g></g></svg>